<svg width="120" height="38" viewBox="0 0 120 38" fill="none" xmlns="http://www.w3.org/2000/svg">
<path d="M0.89502 37.8101V0.104919M10.1138 37.8101V0.104919M13.8013 37.8101V0.104919M19.3325 37.8101V0.104919M26.7075 37.8101V0.104919M30.395 37.8101V0.104919M34.0825 37.8101V0.104919M37.77 37.8101V0.104919M43.3013 37.8101V0.104919" stroke="black" stroke-width="1.7" stroke-miterlimit="10"/>
<path d="M52.52 37.8951V0.104919" stroke="black" stroke-width="5.7" stroke-miterlimit="10"/>
<path d="M58.0513 37.8951V0.104919" stroke="black" stroke-width="1.7" stroke-miterlimit="10"/>
<path d="M65.4263 37.8951V0.104919" stroke="black" stroke-width="5.7" stroke-miterlimit="10"/>
<path d="M72.8013 37.8951V0.104919" stroke="black" stroke-width="1.7" stroke-miterlimit="10"/>
<path d="M77.4106 37.8951V0.104919M84.7856 37.8951V0.104919M90.3169 37.8951V0.104919M95.8481 37.8951V0.104919" stroke="black" stroke-width="3.7" stroke-miterlimit="10"/>
<path d="M102.301 37.8101V0.104919M107.833 37.8101V0.104919M115.208 37.8101V0.104919M118.895 37.8101V0.104919" stroke="black" stroke-width="1.7" stroke-miterlimit="10"/>
</svg>
