<svg width="46" height="64" viewBox="0 0 46 64" color="#3B82F6" fill="none" xmlns="http://www.w3.org/2000/svg">
<path d="M34.4527 48.43C33.8008 56.9381 26.6824 63.521 18.1404 63.521C9.59433 63.521 2.48164 56.9262 1.82812 48.43C-0.632728 48.43 -0.571852 44.8132 1.78666 44.8132H4.44931L16.3315 21.5245V1.78351C16.3315 -0.594464 19.9484 -0.594464 19.9484 1.78351V21.5245L31.8306 44.8132H34.4942C36.8518 44.8132 36.9142 48.43 34.4518 48.43H34.4527ZM42.3789 10.6681H24.5639V15.9236H42.3789V10.6681ZM45.9958 3.26396V19.5405H20.9473V3.26396H45.9958ZM8.50625 44.8127H27.7741L23.0607 35.5747L18.1399 25.9301L8.50625 44.8127ZM30.6951 49.3638L5.58526 49.3653C6.64334 55.4405 11.9362 59.9041 18.1399 59.9041C24.331 59.9041 29.6345 55.4479 30.6946 49.3637L30.6951 49.3638Z" fill="currentColor"/>
</svg>
